# xmcd
#
# Track frame offsets:
#	150
#	9397
#	67380
#	123278
#	193835
#	228706
#	274411
#	322114
#
# Disc length: 4563 seconds
#
# Revision: 1
# Processed by: cddbd v1.5.2PL0 Copyright (c) Steve Scherf et al.
# Submitted via: audiograbber 1.83.01
#
DISCID=7d11d108
DTITLE=Grateful Dead - 78-05-16 Uptown Theatre, Chicago IL
DYEAR=1900
DGENRE=
TTITLE0=Crowd Noise 3
TTITLE1=Estimated Prophet
TTITLE2=He's Gone
TTITLE3=Drums
TTITLE4=Space
TTITLE5=Comes A Time
TTITLE6=Sugar Magnolia
TTITLE7=Johnny B Goode
EXTD=
EXTT0=
EXTT1=
EXTT2=
EXTT3=
EXTT4=
EXTT5=
EXTT6=
EXTT7=
PLAYORDER=
